# AST/ASF file generated using VICON BodyLanguage
# -----------------------------------------------
:version 1.10
:name VICON
:units
  mass 1.0
  length 0.45
  angle deg
:documentation
   .ast/.asf automatically generated from VICON data using
   VICON BodyBuilder and BodyLanguage model FoxedUp or BRILLIANT.MOD
:root
   order TX TY TZ RX RY RZ
   axis XYZ
   position 0 0 0  
   orientation 0 0 0 
:bonedata
  begin
     id 1 
     name lhipjoint
     direction 0.573633 -0.743009 0.344793 
     length 2.46257 
     axis 0 0 0  XYZ
  end
  begin
     id 2 
     name lfemur
     direction 0.34202 -0.939693 0  
     length 7.3842  
     axis 0 0 20  XYZ
    dof rx ry rz
    limits (-160.0 20.0)
           (-70.0 70.0)
           (-60.0 70.0)
  end
  begin
     id 3 
     name ltibia
     direction 0.34202 -0.939693 0   
     length 7.50407   
     axis 0 0 20   XYZ
    dof rx
    limits (-10.0 170.0)
  end
  begin
     id 4 
     name lfoot
     direction 0.110749 -0.304281 0.946123   
     length 1.95925   
     axis -90 7.62852e-016 20   XYZ
    dof rx rz
    limits (-45.0 90.0)
           (-70.0 20.0)
  end
  begin
     id 5 
     name ltoes
     direction 1.53554e-011 -4.21843e-011 1   
     length 0.978318   
     axis -90 7.62852e-016 20   XYZ
    dof rx
    limits (-90.0 20.0)
  end
  begin
     id 6 
     name rhipjoint
     direction -0.488109 -0.791693 0.367385   
     length 2.31113  
     axis 0 0 0  XYZ 
  end
  begin
     id 7 
     name rfemur
     direction -0.34202 -0.939693 0   
     length 7.40965   
     axis 0 0 -20   XYZ
    dof rx ry rz
    limits (-160.0 20.0)
           (-70.0 70.0)
           (-70.0 60.0)
  end
  begin
     id 8 
     name rtibia
     direction -0.34202 -0.939693 0   
     length 7.55548   
     axis 0 0 -20   XYZ
    dof rx
    limits (-10.0 170.0)
 end
 begin
     id 9 
     name rfoot
     direction -0.127594 -0.350561 0.927808   
     length 2.07199  
     axis -90 -7.62852e-016 -20   XYZ
    dof rx rz
    limits (-45.0 90.0)
           (-20.0 70.0)
  end
  begin
     id 10 
     name rtoes
     direction -1.53542e-011 -4.21909e-011 1   
     length 1.02667   
     axis -90 -7.62852e-016 -20   XYZ
    dof rx
    limits (-90.0 20.0)
  end
  begin
     id 11 
     name lowerback
     direction -0.0103342 0.997298 -0.0727278   
     length 2.02836   
     axis 0 0 0   XYZ
    dof rx ry rz
    limits (-20.0 45.0)
           (-30.0 30.0)
           (-30.0 30.0)
  end
  begin
     id 12 
     name upperback
     direction 0.0171146 0.999786 -0.011606   
     length 2.03179   
     axis 0 0 0   XYZ
    dof rx ry rz
    limits (-20.0 45.0)
           (-30.0 30.0)
           (-30.0 30.0)
  end
  begin
     id 13 
     name thorax
     direction 0.0216927 0.999513 0.0224343   
     length 2.03882   
     axis 0 0 0   XYZ
    dof rx ry rz
    limits (-20.0 45.0)
           (-30.0 30.0)
           (-30.0 30.0)
  end
  begin
     id 14 
     name lowerneck
     direction 0.000989287 0.993907 0.110221   
     length 1.75428   
     axis 0 0 0   XYZ
    dof rx ry rz
    limits (-20.0 45.0)
           (-30.0 30.0)
           (-30.0 30.0)
  end
  begin
     id 15 
     name upperneck
     direction -0.0172474 0.994813 -0.100253   
     length 1.77058   
     axis 0 0 0   XYZ
    dof rx ry rz
    limits (-20.0 45.0)
           (-30.0 30.0)
           (-30.0 30.0)
  end
  begin
     id 16
     name head
     direction -0.00486455 0.99894 -0.0457663  
     length 1.77427  
     axis 0 0 0   XYZ
    dof rx ry rz
    limits (-20.0 45.0)
           (-30.0 30.0)
           (-30.0 30.0)
  end
  begin
     id 17 
     name lclavicle
     direction 0.927314 0.333734 -0.169441  
     length 3.97584  
     axis 0 0 0   XYZ
    dof ry rz
    limits (-20.0 10.0)
           (0.0 20.0)
  end
  begin
     id 18 
     name lhumerus
     direction 1 -4.48965e-011 -3.25313e-028   
     length 4.76468   
     axis 180 -30 -90   XYZ
    dof rx ry rz
    limits (-60.0 90.0)
           (-90.0 90.0)
           (-90.0 90.0)
  end
  begin
     id 19
     name lradius
     direction 1 -4.48969e-011 -2.8465e-028   
     length 3.52712   
     axis -180 -30 -90   XYZ
    dof rx
    limits (-10.0 170.0)
  end
  begin
     id 20
     name lwrist
     direction 1 -4.4896e-011 -7.78665e-028   
     length 1.76356   
     axis 1.91374e-015 90 90   XYZ
    dof ry
    limits (-180.0 0.0)
 end
  begin
     id 21 
     name lhand
     direction 1 -4.48959e-011 -1.55733e-027   
     length 0.859564   
     axis 9.9371e-016 90 90   XYZ
    dof rx rz
    limits (-90.0 90.0)
           (-45.0 45.0)
  end
  begin
     id 22 
     name lfingers
     direction 1 -4.48965e-011 -3.11466e-027   
     length 0.693002   
     axis 1.98742e-015 90 90   XYZ
    dof rx
    limits (0.0 90.0)
  end
  begin
     id 23
     name lthumb
     direction 0.707107 -6.34948e-011 0.707107   
     length 0.995017   
     axis -90 45 2.85299e-015   XYZ
    dof rx rz
    limits (-45.0 45.0)
           (-45.0 45.0)
  end
  begin
     id 24 
     name rclavicle
     direction -0.899388 0.348209 -0.264294   
     length 3.68366  
     axis 0 0 0   XYZ 
    dof ry rz
    limits (-10.0 20.0)
           (-20.0 0.0)
  end
  begin
     id 25 
     name rhumerus
     direction -1 -4.48965e-011 -3.01536e-027  
     length 4.90577   
     axis 180 30 90   XYZ
    dof rx ry rz
    limits (-90.0 60.0)
           (-90.0 90.0)
           (-90.0 90.0)
  end
  begin
     id 26 
     name rradius
     direction -1 -4.48966e-011 3.93291e-027   
     length 3.42692   
     axis -180 30 90   XYZ
    dof rx
    limits (-10.0 170.0)
  end
  begin
     id 27 
     name rwrist
     direction -1 -4.48969e-011 -7.78665e-028   
     length 1.71346   
     axis 1.91374e-015 -90 -90   XYZ
    dof ry
    limits (-180.0 0.0)
  end
  begin
     id 28
     name rhand
     direction -1 -4.48967e-011 -1.55733e-027   
     length 0.740957   
     axis 9.9371e-016 -90 -90   XYZ
    dof rx rz
    limits (-90.0 90.0)
           (-45.0 45.0)
  end
  begin
     id 29
     name rfingers
     direction -1 -4.48949e-011 -3.11466e-027   
     length 0.597378   
     axis 1.98742e-015 -90 -90   XYZ
    dof rx
    limits (0.0 90.0)
  end
  begin
     id 30
     name rthumb
     direction -0.707107 -6.34931e-011 0.707107   
     length 0.857719   
     axis -90 -45 -2.85299e-015   XYZ
    dof rx rz
    limits (-45.0 45.0)
           (-45.0 45.0)
  end
:hierarchy
  begin
    root lhipjoint rhipjoint lowerback
    lhipjoint lfemur
    lfemur ltibia
    ltibia lfoot
    lfoot ltoes
    rhipjoint rfemur
    rfemur rtibia
    rtibia rfoot
    rfoot rtoes
    lowerback upperback
    upperback thorax
    thorax lowerneck lclavicle rclavicle
    lowerneck upperneck
    upperneck head
    lclavicle lhumerus
    lhumerus lradius
    lradius lwrist
    lwrist lhand lthumb
    lhand lfingers
    rclavicle rhumerus
    rhumerus rradius
    rradius rwrist
    rwrist rhand rthumb
    rhand rfingers
  end

#!OML:ASF E:\I on waltz\AllaLogoMonkeySwing\Project 1\Capture day 1\Session 1\Subject1.ASF
:FULLY-SPECIFIED
:DEGREES
1
root -4.36787 17.0352 -13.6629 -2.46949 4.12458 4.40822
lowerback 7.79242 -4.17591 -9.25391
upperback -0.610414 -6.34315 2.06804
thorax -3.77189 -2.94397 8.00781
lowerneck -0.648761 -7.5393 -5.03995
upperneck 8.01478 -10.4686 6.45051
head 3.41816 -5.16346 2.64184
rclavicle 1.85739e-015 1.35174e-014
rhumerus 21.2134 -2.0643 -48.5445
rradius 134.288
rwrist -5.98136
rhand -14.8271 -38.545
rfingers 7.12502
rthumb 11.3315 -68.2189
lclavicle 1.85739e-015 1.35174e-014
lhumerus -28.8726 22.4037 85.6752
lradius 38.2552
lwrist -3.78688
lhand -6.12785 -14.1508
lfingers 7.12502
lthumb 19.7095 14.87
rfemur -22.7264 -2.9571 8.00374
rtibia 45.1173
rfoot -15.8042 -10.1249
rtoes 8.1579
lfemur 6.29453 5.8918 -22.5018
ltibia 29.8283
lfoot -21.4166 16.3614
ltoes -32.8061
2
root -4.26929 17.0325 -13.789 -2.18301 4.27662 4.64022
lowerback 7.76516 -4.24371 -9.54374
upperback -0.547506 -6.46017 1.93986
thorax -3.6507 -3.00678 8.0335
lowerneck -0.649519 -7.51604 -4.82456
upperneck 7.75467 -10.4273 6.44018
head 3.30941 -5.13916 2.60482
rclavicle -1.00442e-013 1.11319e-014
rhumerus 21.7171 -2.13055 -48.541
rradius 134.242
rwrist -6.80839
rhand -15.1293 -38.7464
rfingers 7.12502
rthumb 11.04 -68.436
lclavicle -1.00442e-013 1.11319e-014
lhumerus -28.7777 21.5057 85.9849
lradius 39.5104
lwrist -2.98343
lhand -6.51983 -14.9431
lfingers 7.12502
lthumb 19.3326 14.1159
rfemur -23.3816 -2.9425 7.30952
rtibia 44.8711
rfoot -15.1708 -10.1061
rtoes 8.52448
lfemur 5.75836 6.31325 -23.1488
ltibia 29.3862
lfoot -21.6387 16.6431
ltoes -33.5698
3
root -4.17238 17.026 -13.9145 -1.95986 4.40114 4.58133
lowerback 7.74986 -4.12146 -9.37961
upperback -0.428058 -6.27532 1.92873
thorax -3.57114 -2.92738 7.90905
lowerneck -0.737624 -7.64745 -5.23466
upperneck 7.47416 -10.6057 6.86388
head 3.30147 -5.22782 2.81239
rclavicle -1.53437e-014 -8.74653e-015
rhumerus 21.9911 -2.6615 -48.225
rradius 134.207
rwrist -7.35458
rhand -15.124 -38.6063
rfingers 7.12502
rthumb 11.0452 -68.2957
lclavicle -1.53437e-014 -8.74653e-015
lhumerus -28.4999 20.4403 86.6801
lradius 40.5367
lwrist -2.45939
lhand -7.14612 -16.3772
lfingers 7.12502
lthumb 18.7303 12.741
rfemur -23.8644 -2.91832 6.95866
rtibia 44.44
rfoot -14.4315 -10.1587
rtoes 8.88934
lfemur 5.20925 6.59397 -23.476
ltibia 29.0884
lfoot -22.1431 16.7373
ltoes -33.2434
4
root -4.07749 17.0243 -14.0399 -1.76837 4.50528 4.51993
lowerback 7.77811 -4.11139 -9.33873
upperback -0.326103 -6.25847 1.86765
thorax -3.49344 -2.92847 7.81629
lowerneck -0.628942 -7.67209 -5.07258
upperneck 7.2178 -10.6379 6.9447
head 3.18954 -5.24169 2.81628
rclavicle 4.09869e-014 -1.03368e-014
rhumerus 22.3061 -2.76618 -48.3253
rradius 134.146
rwrist -7.59317
rhand -15.2063 -38.4155
rfingers 7.12502
rthumb 10.9658 -68.1091
lclavicle 4.09869e-014 -1.03368e-014
lhumerus -28.4058 19.9387 86.8568
lradius 41.3584
lwrist -2.27066
lhand -7.3933 -17.0108
lfingers 7.12502
lthumb 18.4925 12.1302
rfemur -24.2596 -2.74507 6.57451
rtibia 43.9311
rfoot -13.8204 -10.1167
rtoes 10.7881
lfemur 4.68021 6.97015 -23.7277
ltibia 28.855
lfoot -22.6772 16.5302
ltoes -32.9465
5
root -3.98716 17.0369 -14.1622 -1.60841 4.59864 4.4004
lowerback 7.81104 -3.9419 -9.22348
upperback -0.183387 -6.0178 1.89132
thorax -3.41745 -2.82039 7.75622
lowerneck -0.858236 -7.88682 -5.16191
upperneck 7.22559 -10.9199 6.99937
head 3.26568 -5.37709 2.82749
rclavicle 3.22528e-014 -5.56597e-015
rhumerus 22.405 -3.09774 -48.0786
rradius 134.085
rwrist -7.69006
rhand -15.3432 -38.3253
rfingers 7.12502
rthumb 10.8337 -68.0259
lclavicle 3.22528e-014 -5.56597e-015
lhumerus -28.1671 19.3334 87.346
lradius 41.88
lwrist -2.25447
lhand -7.24164 -16.5317
lfingers 7.12502
lthumb 18.6384 12.5954
rfemur -24.5318 -2.23232 6.22593
rtibia 43.3053
rfoot -13.5133 -10.245
rtoes 15.7863
lfemur 4.1295 7.51083 -23.8139
ltibia 28.7682
lfoot -23.2481 15.9044
ltoes -32.6844
6
root -3.90501 17.0524 -14.2808 -1.39698 4.70118 4.37008
lowerback 7.7859 -3.77098 -9.26351
upperback -0.0934275 -5.78607 1.92345
thorax -3.34663 -2.71168 7.7904
lowerneck -0.917881 -8.06453 -5.55556
upperneck 7.18343 -11.1728 7.39149
head 3.34074 -5.5013 3.0165
rclavicle -1.87603e-014 1.90833e-014
rhumerus 22.449 -3.30253 -47.8795
rradius 134.054
rwrist -7.85167
rhand -15.2478 -38.2213
rfingers 7.12502
rthumb 10.9257 -67.917
lclavicle -1.87603e-014 1.90833e-014
lhumerus -28.0579 18.714 87.7627
lradius 42.1484
lwrist -2.14187
lhand -6.94007 -15.7421
lfingers 7.12502
lthumb 18.9285 13.3569
rfemur -24.7892 -1.80912 5.84572
rtibia 42.6523
rfoot -13.4044 -10.625
rtoes 21.7617
lfemur 3.47697 8.07911 -23.9427
ltibia 28.7783
lfoot -23.6934 15.0122
ltoes -32.3553
7
root -3.83299 17.0609 -14.3984 -1.11075 4.85828 4.76744
lowerback 7.7703 -3.88809 -9.97518
upperback -0.0868254 -6.01055 1.76205
thorax -3.23325 -2.8193 8.02989
lowerneck -0.558799 -7.88512 -5.36481
upperneck 7.01269 -10.9625 7.68348
head 3.20742 -5.39445 3.11006
rclavicle 2.20403e-014 1.43125e-014
rhumerus 22.7697 -2.71762 -48.5205
rradius 134.038
rwrist -8.04908
rhand -15.1013 -37.9813
rfingers 7.12502
rthumb 11.067 -67.6695
lclavicle 2.20403e-014 1.43125e-014
lhumerus -28.2825 18.805 87.3012
lradius 42.2245
lwrist -1.92658
lhand -6.70026 -15.4615
lfingers 7.12502
lthumb 19.1591 13.6148
rfemur -25.068 -1.70431 5.08719
rtibia 42.051
rfoot -13.1358 -11.1136
rtoes 25.4689
lfemur 2.72254 8.6392 -24.5109
ltibia 28.8694
lfoot -23.813 14.1003
ltoes -32.4109
8
root -3.76737 17.07 -14.5128 -0.815685 4.98633 5.30382
lowerback 7.67697 -3.73074 -10.5713
upperback -0.0214618 -5.84853 1.54028
thorax -3.11139 -2.73969 8.10522
lowerneck -0.453471 -8.02068 -5.63206
upperneck 7.00456 -11.1786 8.15701
head 3.25929 -5.49912 3.31509
rclavicle -1.44367e-014 1.39149e-014
rhumerus 22.5718 -2.71598 -48.7148
rradius 134.114
rwrist -8.1862
rhand -15.3355 -37.8183
rfingers 7.12502
rthumb 10.8411 -67.5185
lclavicle -1.44367e-014 1.39149e-014
lhumerus -28.2641 18.6254 87.1925
lradius 41.9093
lwrist -2.09782
lhand -6.55943 -15.6191
lfingers 7.12502
lthumb 19.2945 13.4437
rfemur -25.3182 -1.5508 4.22764
rtibia 41.5542
rfoot -13.2843 -11.5208
rtoes 27.4345
lfemur 1.91921 9.14737 -25.2758
ltibia 29.0556
lfoot -23.7448 13.4364
ltoes -32.5703
9
root -3.70498 17.0871 -14.6211 -0.597764 5.06022 5.47493
lowerback 7.60021 -3.59386 -10.7847
upperback 0.0236541 -5.67918 1.38063
thorax -3.05322 -2.65779 8.03488
lowerneck -0.422271 -8.18758 -5.62765
upperneck 7.40095 -11.4654 8.5931
head 3.09182 -5.60433 3.0993
rclavicle -2.12451e-014 2.3059e-014
rhumerus 22.3307 -2.64282 -49.0485
rradius 134.261
rwrist -8.11341
rhand -15.5651 -37.9182
rfingers 7.12502
rthumb 10.6197 -67.6298
lclavicle -2.12451e-014 2.3059e-014
lhumerus -28.4188 18.7334 86.8185
lradius 41.3592
lwrist -2.56034
lhand -6.48012 -15.8001
lfingers 7.12502
lthumb 19.3708 13.2551
rfemur -25.4573 -1.21473 3.78772
rtibia 41.1712
rfoot -14.7101 -11.6429
rtoes 28.5801
lfemur 1.14387 9.41476 -25.7476
ltibia 29.3211
lfoot -23.6319 13.1567
ltoes -32.5082
10
root -3.6446 17.1065 -14.7272 -0.491259 5.16393 5.25072
lowerback 7.70604 -3.46599 -10.5679
upperback 0.00614921 -5.50398 1.34812
thorax -3.19177 -2.56412 7.87882
lowerneck -0.447111 -8.29597 -5.72098
upperneck 7.73843 -11.6426 8.70317
head 3.22165 -5.68462 3.12908
rclavicle 4.44035e-014 -9.93923e-015
rhumerus 22.113 -2.55245 -49.3502
rradius 134.404
rwrist -7.85665
rhand -15.4443 -38.0582
rfingers 7.12502
rthumb 10.7362 -67.7638
lclavicle 4.44035e-014 -9.93923e-015
lhumerus -28.7628 19.0428 86.3472
lradius 40.6343
lwrist -2.98312
lhand -6.40506 -15.8833
lfingers 7.12502
lthumb 19.4429 13.1647
rfemur -25.4461 -1.07729 3.87906
rtibia 40.8744
rfoot -16.7573 -11.831
rtoes 27.8595
lfemur 0.436891 9.44388 -25.8388
ltibia 29.6567
lfoot -23.5656 13.0244
ltoes -32.1029
11
root -3.58377 17.1256 -14.8327 -0.435604 5.2752 4.83074
lowerback 7.91311 -3.38672 -10.1601
upperback -0.0268037 -5.38366 1.42243
thorax -3.39713 -2.49627 7.74162
lowerneck -0.408119 -8.30612 -5.92547
upperneck 7.93906 -11.6809 8.86253
head 3.29915 -5.70172 3.20348
rclavicle -3.7123e-014 1.63003e-014
rhumerus 22.0677 -2.25472 -49.5171
rradius 134.483
rwrist -7.55909
rhand -15.4816 -38.3352
rfingers 7.12502
rthumb 10.7002 -68.0427
lclavicle -3.7123e-014 1.63003e-014
lhumerus -29.1948 19.7794 85.7434
lradius 39.8139
lwrist -3.40056
lhand -6.17441 -15.7811
lfingers 7.12502
lthumb 19.6647 13.2443
rfemur -25.4125 -1.3468 4.30399
rtibia 40.6654
rfoot -18.3284 -12.3098
rtoes 25.5166
lfemur -0.271558 9.31561 -25.7542
ltibia 30.0756
lfoot -23.5079 13.0121
ltoes -31.6162
